<svg width="1234" height="1156" viewBox="0 0 1234 1156" fill="none" xmlns="http://www.w3.org/2000/svg">
<rect x="1.00223" width="1232.23" height="1156" rx="10" fill="#FFAF3F"/>
<rect x="1008.85" y="84.3865" width="219.597" height="0.479468" rx="0.239734" fill="url(#paint0_linear_102_16289)" fill-opacity="0.71"/>
<rect x="888.985" y="130.903" width="339.463" height="0.479468" rx="0.239734" fill="url(#paint1_linear_102_16289)" fill-opacity="0.71"/>
<rect x="820.419" y="177.4" width="408.029" height="0.479468" rx="0.239734" fill="url(#paint2_linear_102_16289)"/>
<rect x="785.419" y="222.482" width="443.03" height="0.479468" rx="0.239734" fill="url(#paint3_linear_102_16289)" fill-opacity="0.71"/>
<rect x="770.073" y="267.545" width="458.374" height="0.479468" rx="0.239734" fill="url(#paint4_linear_102_16289)" fill-opacity="0.71"/>
<rect x="755.688" y="313.098" width="472.758" height="0.479468" rx="0.239734" fill="url(#paint5_linear_102_16289)" fill-opacity="0.71"/>
<rect x="755.688" y="358.161" width="472.758" height="0.479468" rx="0.239734" fill="url(#paint6_linear_102_16289)" fill-opacity="0.71"/>
<rect x="785.419" y="404.187" width="443.03" height="0.479468" rx="0.239734" fill="url(#paint7_linear_102_16289)" fill-opacity="0.71"/>
<rect x="820.419" y="449.74" width="408.029" height="0.479468" rx="0.239734" fill="url(#paint8_linear_102_16289)" fill-opacity="0.71"/>
<rect x="871.242" y="495.294" width="357.204" height="0.479468" rx="0.239734" fill="url(#paint9_linear_102_16289)" fill-opacity="0.71"/>
<rect x="958.026" y="538.922" width="270.421" height="0.479468" rx="0.239734" fill="url(#paint10_linear_102_16289)" fill-opacity="0.71"/>
<rect x="1214.55" y="84.8584" width="0.479469" height="481.385" rx="0.239735" fill="url(#paint11_linear_102_16289)" fill-opacity="0.71"/>
<rect x="1110.49" y="84.8584" width="0.479469" height="481.385" rx="0.239735" fill="url(#paint12_linear_102_16289)" fill-opacity="0.71"/>
<rect x="1163.24" y="88.2188" width="0.479469" height="481.385" rx="0.239735" fill="url(#paint13_linear_102_16289)" fill-opacity="0.71"/>
<rect x="1058.23" y="84.8584" width="0.479469" height="474.197" rx="0.239735" fill="url(#paint14_linear_102_16289)" fill-opacity="0.71"/>
<rect x="1006.93" y="84.8584" width="0.479469" height="468.439" rx="0.239735" fill="url(#paint15_linear_102_16289)" fill-opacity="0.71"/>
<rect x="957.542" y="112.667" width="0.479469" height="420.016" rx="0.239735" fill="url(#paint16_linear_102_16289)" fill-opacity="0.71"/>
<rect x="906.243" y="126.108" width="0.479469" height="385.492" rx="0.239735" fill="url(#paint17_linear_102_16289)" fill-opacity="0.71"/>
<rect x="854.459" y="155.822" width="0.479469" height="319.328" rx="0.239735" fill="url(#paint18_linear_102_16289)" fill-opacity="0.71"/>
<rect x="802.201" y="213.364" width="0.479469" height="206.171" rx="0.239735" fill="url(#paint19_linear_102_16289)" fill-opacity="0.71"/>
<rect width="219.597" height="0.479468" rx="0.239734" transform="matrix(-1 0 0 1 220.598 88.2188)" fill="url(#paint20_linear_102_16289)" fill-opacity="0.71"/>
<rect width="339.463" height="0.479468" rx="0.239734" transform="matrix(-1 0 0 1 340.466 134.735)" fill="url(#paint21_linear_102_16289)" fill-opacity="0.71"/>
<rect width="408.029" height="0.479468" rx="0.239734" transform="matrix(-1 0 0 1 409.032 181.233)" fill="url(#paint22_linear_102_16289)"/>
<rect width="443.03" height="0.479468" rx="0.239734" transform="matrix(-1 0 0 1 444.032 226.314)" fill="url(#paint23_linear_102_16289)" fill-opacity="0.71"/>
<rect width="458.374" height="0.479468" rx="0.239734" transform="matrix(-1 0 0 1 459.379 271.377)" fill="url(#paint24_linear_102_16289)" fill-opacity="0.71"/>
<rect width="472.758" height="0.479468" rx="0.239734" transform="matrix(-1 0 0 1 473.758 316.931)" fill="url(#paint25_linear_102_16289)" fill-opacity="0.71"/>
<rect width="472.758" height="0.479468" rx="0.239734" transform="matrix(-1 0 0 1 473.758 361.994)" fill="url(#paint26_linear_102_16289)" fill-opacity="0.71"/>
<rect width="443.03" height="0.479468" rx="0.239734" transform="matrix(-1 0 0 1 444.032 408.037)" fill="url(#paint27_linear_102_16289)" fill-opacity="0.71"/>
<rect width="408.029" height="0.479468" rx="0.239734" transform="matrix(-1 0 0 1 409.032 453.573)" fill="url(#paint28_linear_102_16289)" fill-opacity="0.71"/>
<rect width="357.204" height="0.479468" rx="0.239734" transform="matrix(-1 0 0 1 358.21 499.126)" fill="url(#paint29_linear_102_16289)" fill-opacity="0.71"/>
<rect width="270.421" height="0.479468" rx="0.239734" transform="matrix(-1 0 0 1 271.426 542.754)" fill="url(#paint30_linear_102_16289)" fill-opacity="0.71"/>
<rect width="0.479469" height="481.385" rx="0.239735" transform="matrix(-1 0 0 1 14.9064 88.7097)" fill="url(#paint31_linear_102_16289)" fill-opacity="0.71"/>
<rect width="0.479469" height="481.385" rx="0.239735" transform="matrix(-1 0 0 1 118.954 88.7097)" fill="url(#paint32_linear_102_16289)" fill-opacity="0.71"/>
<rect width="0.479469" height="481.385" rx="0.239735" transform="matrix(-1 0 0 1 66.2092 92.051)" fill="url(#paint33_linear_102_16289)" fill-opacity="0.71"/>
<rect width="0.479469" height="474.197" rx="0.239735" transform="matrix(-1 0 0 1 171.214 88.7097)" fill="url(#paint34_linear_102_16289)" fill-opacity="0.71"/>
<rect width="0.479469" height="468.439" rx="0.239735" transform="matrix(-1 0 0 1 222.519 88.7097)" fill="url(#paint35_linear_102_16289)" fill-opacity="0.71"/>
<rect width="0.479469" height="420.016" rx="0.239735" transform="matrix(-1 0 0 1 271.905 116.518)" fill="url(#paint36_linear_102_16289)" fill-opacity="0.71"/>
<rect width="0.479469" height="385.492" rx="0.239735" transform="matrix(-1 0 0 1 323.209 129.94)" fill="url(#paint37_linear_102_16289)" fill-opacity="0.71"/>
<rect width="0.479469" height="319.328" rx="0.239735" transform="matrix(-1 0 0 1 374.989 159.655)" fill="url(#paint38_linear_102_16289)" fill-opacity="0.71"/>
<rect width="0.479469" height="206.171" rx="0.239735" transform="matrix(-1 0 0 1 427.251 217.196)" fill="url(#paint39_linear_102_16289)" fill-opacity="0.71"/>
<rect x="1.00195" y="1134.89" width="1227.44" height="0.479468" rx="0.239734" fill="white" fill-opacity="0.32"/>
<rect x="1.00195" y="1105.67" width="1227.44" height="0.479468" rx="0.239734" fill="white" fill-opacity="0.3"/>
<rect x="1.00195" y="1082.64" width="1227.44" height="0.479468" rx="0.239734" fill="white" fill-opacity="0.28"/>
<rect x="1.00195" y="1061.08" width="1227.44" height="0.479468" rx="0.239734" fill="white" fill-opacity="0.24"/>
<rect x="1.00195" y="1044.28" width="1227.44" height="0.479468" rx="0.239734" fill="white" fill-opacity="0.22"/>
<rect x="1.00195" y="1028.95" width="1227.44" height="0.479468" rx="0.239734" fill="white" fill-opacity="0.2"/>
<rect x="1.00195" y="1015.51" width="1227.44" height="0.479468" rx="0.239734" fill="white" fill-opacity="0.18"/>
<rect x="1.00195" y="1003.54" width="1227.44" height="0.479468" rx="0.239734" fill="white" fill-opacity="0.16"/>
<rect x="1.00195" y="992.512" width="1227.44" height="0.479468" rx="0.239734" fill="white" fill-opacity="0.14"/>
<rect x="1.00195" y="981.487" width="1227.44" height="0.479468" rx="0.239734" fill="white" fill-opacity="0.12"/>
<rect x="1.00195" y="973.333" width="1227.44" height="0.479468" rx="0.239734" fill="white" fill-opacity="0.1"/>
<rect x="1.00195" y="965.666" width="1227.44" height="0.479468" rx="0.239734" fill="white" fill-opacity="0.08"/>
<line y1="-0.5" x2="194.353" y2="-0.5" transform="matrix(-0.917336 -0.398113 0.398115 -0.917336 1228.38 1038.69)" stroke="url(#paint40_linear_102_16289)" stroke-opacity="0.5"/>
<line y1="-0.5" x2="255.385" y2="-0.5" transform="matrix(-0.891784 -0.452462 0.452463 -0.891783 1228.46 1076.89)" stroke="url(#paint41_linear_102_16289)" stroke-opacity="0.5"/>
<line y1="-0.5" x2="335.122" y2="-0.5" transform="matrix(-0.86559 -0.500754 0.500755 -0.865589 1228.46 1129.15)" stroke="url(#paint42_linear_102_16289)" stroke-opacity="0.5"/>
<line y1="-0.5" x2="300.927" y2="-0.5" transform="matrix(-0.815774 -0.57837 0.578371 -0.815774 1129.68 1135.38)" stroke="url(#paint43_linear_102_16289)" stroke-opacity="0.5"/>
<line y1="-0.5" x2="258.633" y2="-0.5" transform="matrix(-0.739689 -0.672949 0.67295 -0.739688 1020.83 1135.38)" stroke="url(#paint44_linear_102_16289)" stroke-opacity="0.5"/>
<line y1="-0.5" x2="220.986" y2="-0.5" transform="matrix(-0.616192 -0.787596 0.787597 -0.616191 911.037 1135.38)" stroke="url(#paint45_linear_102_16289)" stroke-opacity="0.5"/>
<line y1="-0.5" x2="191.985" y2="-0.5" transform="matrix(-0.422066 -0.906565 0.906566 -0.422064 801.715 1135.38)" stroke="url(#paint46_linear_102_16289)" stroke-opacity="0.5"/>
<line x1="692.383" y1="1135.45" x2="666.492" y2="961.404" stroke="url(#paint47_linear_102_16289)" stroke-opacity="0.5"/>
<line x1="582.1" y1="1135.3" x2="611.348" y2="961.249" stroke="url(#paint48_linear_102_16289)" stroke-opacity="0.5"/>
<line y1="-0.5" x2="192.802" y2="-0.5" transform="matrix(0.430224 -0.902722 0.902723 0.430222 473.758 1135.38)" stroke="url(#paint49_linear_102_16289)" stroke-opacity="0.5"/>
<line y1="-0.5" x2="223.971" y2="-0.5" transform="matrix(0.629384 -0.777095 0.777096 0.629382 363.96 1135.38)" stroke="url(#paint50_linear_102_16289)" stroke-opacity="0.5"/>
<line y1="-0.5" x2="258.989" y2="-0.5" transform="matrix(0.740527 -0.672027 0.672028 0.740526 255.599 1135.38)" stroke="url(#paint51_linear_102_16289)" stroke-opacity="0.5"/>
<line y1="-0.5" x2="303.672" y2="-0.5" transform="matrix(0.819455 -0.573144 0.573145 0.819454 146.281 1134.89)" stroke="url(#paint52_linear_102_16289)" stroke-opacity="0.5"/>
<line y1="-0.5" x2="352.186" y2="-0.5" transform="matrix(0.868661 -0.495407 0.495409 0.86866 37.9194 1135.38)" stroke="url(#paint53_linear_102_16289)" stroke-opacity="0.5"/>
<line y1="-0.5" x2="320.371" y2="-0.5" transform="matrix(0.899458 -0.437007 0.437008 0.899457 1.00195 1099.89)" stroke="url(#paint54_linear_102_16289)" stroke-opacity="0.5"/>
<line y1="-0.5" x2="249.646" y2="-0.5" transform="matrix(0.914207 -0.405247 0.405248 0.914207 1.00195 1061.07)" stroke="url(#paint55_linear_102_16289)" stroke-opacity="0.5"/>
<defs>
<linearGradient id="paint0_linear_102_16289" x1="1008.85" y1="84.6262" x2="1228.44" y2="84.6262" gradientUnits="userSpaceOnUse">
<stop stop-color="white" stop-opacity="0.1"/>
<stop offset="1" stop-color="white"/>
</linearGradient>
<linearGradient id="paint1_linear_102_16289" x1="888.985" y1="131.143" x2="1228.45" y2="131.143" gradientUnits="userSpaceOnUse">
<stop stop-color="white" stop-opacity="0.1"/>
<stop offset="1" stop-color="white"/>
</linearGradient>
<linearGradient id="paint2_linear_102_16289" x1="820.419" y1="177.64" x2="1228.45" y2="177.64" gradientUnits="userSpaceOnUse">
<stop stop-color="white" stop-opacity="0.1"/>
<stop offset="1" stop-color="white" stop-opacity="0.4"/>
</linearGradient>
<linearGradient id="paint3_linear_102_16289" x1="785.419" y1="222.721" x2="1228.45" y2="222.721" gradientUnits="userSpaceOnUse">
<stop stop-color="white" stop-opacity="0.1"/>
<stop offset="1" stop-color="white"/>
</linearGradient>
<linearGradient id="paint4_linear_102_16289" x1="770.073" y1="267.784" x2="1228.45" y2="267.784" gradientUnits="userSpaceOnUse">
<stop stop-color="white" stop-opacity="0.1"/>
<stop offset="1" stop-color="white"/>
</linearGradient>
<linearGradient id="paint5_linear_102_16289" x1="755.688" y1="313.338" x2="1228.45" y2="313.338" gradientUnits="userSpaceOnUse">
<stop stop-color="white" stop-opacity="0.31"/>
<stop offset="0.644231" stop-color="white" stop-opacity="0.35"/>
<stop offset="0.730769" stop-color="white" stop-opacity="0.08"/>
<stop offset="0.951923" stop-color="white" stop-opacity="0.08"/>
<stop offset="0.952023" stop-color="white" stop-opacity="0.16"/>
</linearGradient>
<linearGradient id="paint6_linear_102_16289" x1="755.688" y1="358.401" x2="1228.45" y2="358.401" gradientUnits="userSpaceOnUse">
<stop stop-color="white" stop-opacity="0.31"/>
<stop offset="0.644231" stop-color="white" stop-opacity="0.35"/>
<stop offset="0.730769" stop-color="white" stop-opacity="0.08"/>
<stop offset="0.951923" stop-color="white" stop-opacity="0.08"/>
<stop offset="0.952023" stop-color="white" stop-opacity="0.16"/>
</linearGradient>
<linearGradient id="paint7_linear_102_16289" x1="785.419" y1="404.426" x2="1228.45" y2="404.426" gradientUnits="userSpaceOnUse">
<stop stop-color="white" stop-opacity="0.1"/>
<stop offset="1" stop-color="white" stop-opacity="0.6"/>
</linearGradient>
<linearGradient id="paint8_linear_102_16289" x1="820.419" y1="449.98" x2="1228.45" y2="449.98" gradientUnits="userSpaceOnUse">
<stop stop-color="white" stop-opacity="0.1"/>
<stop offset="1" stop-color="white"/>
</linearGradient>
<linearGradient id="paint9_linear_102_16289" x1="871.242" y1="495.533" x2="1228.45" y2="495.533" gradientUnits="userSpaceOnUse">
<stop stop-color="white" stop-opacity="0.1"/>
<stop offset="1" stop-color="white"/>
</linearGradient>
<linearGradient id="paint10_linear_102_16289" x1="958.026" y1="539.162" x2="1228.45" y2="539.162" gradientUnits="userSpaceOnUse">
<stop stop-color="white" stop-opacity="0.1"/>
<stop offset="1" stop-color="white"/>
</linearGradient>
<linearGradient id="paint11_linear_102_16289" x1="1214.79" y1="84.8584" x2="1214.79" y2="566.244" gradientUnits="userSpaceOnUse">
<stop stop-color="white" stop-opacity="0.15"/>
<stop offset="0.5" stop-color="white"/>
<stop offset="1" stop-color="white" stop-opacity="0.15"/>
</linearGradient>
<linearGradient id="paint12_linear_102_16289" x1="1110.73" y1="84.8584" x2="1110.73" y2="566.244" gradientUnits="userSpaceOnUse">
<stop stop-color="white" stop-opacity="0.15"/>
<stop offset="0.25" stop-color="white"/>
<stop offset="0.5" stop-color="white" stop-opacity="0.08"/>
<stop offset="0.75" stop-color="white"/>
<stop offset="1" stop-color="white" stop-opacity="0.15"/>
</linearGradient>
<linearGradient id="paint13_linear_102_16289" x1="1163.48" y1="88.2187" x2="1163.48" y2="569.604" gradientUnits="userSpaceOnUse">
<stop stop-color="white" stop-opacity="0.15"/>
<stop offset="0.25" stop-color="white"/>
<stop offset="0.5" stop-color="white" stop-opacity="0.08"/>
<stop offset="0.75" stop-color="white"/>
<stop offset="1" stop-color="white" stop-opacity="0.15"/>
</linearGradient>
<linearGradient id="paint14_linear_102_16289" x1="1058.47" y1="84.8584" x2="1058.47" y2="559.055" gradientUnits="userSpaceOnUse">
<stop stop-color="white" stop-opacity="0.15"/>
<stop offset="0.5" stop-color="white"/>
<stop offset="1" stop-color="white" stop-opacity="0.15"/>
</linearGradient>
<linearGradient id="paint15_linear_102_16289" x1="1007.17" y1="84.8584" x2="1007.17" y2="553.298" gradientUnits="userSpaceOnUse">
<stop stop-color="white" stop-opacity="0.15"/>
<stop offset="0.5" stop-color="white"/>
<stop offset="1" stop-color="white" stop-opacity="0.15"/>
</linearGradient>
<linearGradient id="paint16_linear_102_16289" x1="957.781" y1="112.667" x2="957.781" y2="532.683" gradientUnits="userSpaceOnUse">
<stop stop-color="white" stop-opacity="0.15"/>
<stop offset="0.5" stop-color="white"/>
<stop offset="1" stop-color="white" stop-opacity="0.15"/>
</linearGradient>
<linearGradient id="paint17_linear_102_16289" x1="906.483" y1="126.108" x2="906.483" y2="511.6" gradientUnits="userSpaceOnUse">
<stop stop-color="white" stop-opacity="0.15"/>
<stop offset="0.5" stop-color="white"/>
<stop offset="1" stop-color="white" stop-opacity="0.15"/>
</linearGradient>
<linearGradient id="paint18_linear_102_16289" x1="854.699" y1="155.822" x2="854.699" y2="475.15" gradientUnits="userSpaceOnUse">
<stop stop-color="white" stop-opacity="0.15"/>
<stop offset="0.5" stop-color="white"/>
<stop offset="1" stop-color="white" stop-opacity="0.15"/>
</linearGradient>
<linearGradient id="paint19_linear_102_16289" x1="802.441" y1="213.364" x2="802.441" y2="419.535" gradientUnits="userSpaceOnUse">
<stop stop-color="white" stop-opacity="0.15"/>
<stop offset="0.519231" stop-color="white"/>
<stop offset="1" stop-color="white" stop-opacity="0.15"/>
</linearGradient>
<linearGradient id="paint20_linear_102_16289" x1="0" y1="0.239734" x2="219.597" y2="0.239734" gradientUnits="userSpaceOnUse">
<stop stop-color="white" stop-opacity="0.1"/>
<stop offset="1" stop-color="white"/>
</linearGradient>
<linearGradient id="paint21_linear_102_16289" x1="0" y1="0.239734" x2="339.463" y2="0.239734" gradientUnits="userSpaceOnUse">
<stop stop-color="white" stop-opacity="0.1"/>
<stop offset="1" stop-color="white"/>
</linearGradient>
<linearGradient id="paint22_linear_102_16289" x1="0" y1="0.239734" x2="408.029" y2="0.239734" gradientUnits="userSpaceOnUse">
<stop stop-color="white" stop-opacity="0.1"/>
<stop offset="1" stop-color="white" stop-opacity="0.4"/>
</linearGradient>
<linearGradient id="paint23_linear_102_16289" x1="0" y1="0.239734" x2="443.03" y2="0.239734" gradientUnits="userSpaceOnUse">
<stop stop-color="white" stop-opacity="0.1"/>
<stop offset="1" stop-color="white"/>
</linearGradient>
<linearGradient id="paint24_linear_102_16289" x1="0" y1="0.239734" x2="458.374" y2="0.239734" gradientUnits="userSpaceOnUse">
<stop stop-color="white" stop-opacity="0.1"/>
<stop offset="1" stop-color="white"/>
</linearGradient>
<linearGradient id="paint25_linear_102_16289" x1="0" y1="0.239734" x2="472.758" y2="0.239734" gradientUnits="userSpaceOnUse">
<stop stop-color="white" stop-opacity="0.31"/>
<stop offset="0.644231" stop-color="white" stop-opacity="0.35"/>
<stop offset="0.730769" stop-color="white" stop-opacity="0.08"/>
<stop offset="0.951923" stop-color="white" stop-opacity="0.08"/>
<stop offset="0.952023" stop-color="white" stop-opacity="0.16"/>
</linearGradient>
<linearGradient id="paint26_linear_102_16289" x1="0" y1="0.239734" x2="472.758" y2="0.239734" gradientUnits="userSpaceOnUse">
<stop stop-color="white" stop-opacity="0.31"/>
<stop offset="0.644231" stop-color="white" stop-opacity="0.35"/>
<stop offset="0.730769" stop-color="white" stop-opacity="0.08"/>
<stop offset="0.951923" stop-color="white" stop-opacity="0.08"/>
<stop offset="0.952023" stop-color="white" stop-opacity="0.16"/>
</linearGradient>
<linearGradient id="paint27_linear_102_16289" x1="0" y1="0.239734" x2="443.03" y2="0.239734" gradientUnits="userSpaceOnUse">
<stop stop-color="white" stop-opacity="0.1"/>
<stop offset="1" stop-color="white" stop-opacity="0.6"/>
</linearGradient>
<linearGradient id="paint28_linear_102_16289" x1="0" y1="0.239734" x2="408.029" y2="0.239734" gradientUnits="userSpaceOnUse">
<stop stop-color="white" stop-opacity="0.1"/>
<stop offset="1" stop-color="white"/>
</linearGradient>
<linearGradient id="paint29_linear_102_16289" x1="0" y1="0.239734" x2="357.204" y2="0.239734" gradientUnits="userSpaceOnUse">
<stop stop-color="white" stop-opacity="0.1"/>
<stop offset="1" stop-color="white"/>
</linearGradient>
<linearGradient id="paint30_linear_102_16289" x1="0" y1="0.239734" x2="270.421" y2="0.239734" gradientUnits="userSpaceOnUse">
<stop stop-color="white" stop-opacity="0.1"/>
<stop offset="1" stop-color="white"/>
</linearGradient>
<linearGradient id="paint31_linear_102_16289" x1="0.239735" y1="0" x2="0.239735" y2="481.385" gradientUnits="userSpaceOnUse">
<stop stop-color="white" stop-opacity="0.15"/>
<stop offset="0.5" stop-color="white"/>
<stop offset="1" stop-color="white" stop-opacity="0.15"/>
</linearGradient>
<linearGradient id="paint32_linear_102_16289" x1="0.239735" y1="0" x2="0.239735" y2="481.385" gradientUnits="userSpaceOnUse">
<stop stop-color="white" stop-opacity="0.15"/>
<stop offset="0.25" stop-color="white"/>
<stop offset="0.5" stop-color="white" stop-opacity="0.08"/>
<stop offset="0.75" stop-color="white"/>
<stop offset="1" stop-color="white" stop-opacity="0.15"/>
</linearGradient>
<linearGradient id="paint33_linear_102_16289" x1="0.239735" y1="0" x2="0.239735" y2="481.385" gradientUnits="userSpaceOnUse">
<stop stop-color="white" stop-opacity="0.15"/>
<stop offset="0.25" stop-color="white"/>
<stop offset="0.5" stop-color="white" stop-opacity="0.08"/>
<stop offset="0.75" stop-color="white"/>
<stop offset="1" stop-color="white" stop-opacity="0.15"/>
</linearGradient>
<linearGradient id="paint34_linear_102_16289" x1="0.239735" y1="0" x2="0.239735" y2="474.197" gradientUnits="userSpaceOnUse">
<stop stop-color="white" stop-opacity="0.15"/>
<stop offset="0.5" stop-color="white"/>
<stop offset="1" stop-color="white" stop-opacity="0.15"/>
</linearGradient>
<linearGradient id="paint35_linear_102_16289" x1="0.239735" y1="0" x2="0.239735" y2="468.439" gradientUnits="userSpaceOnUse">
<stop stop-color="white" stop-opacity="0.15"/>
<stop offset="0.5" stop-color="white"/>
<stop offset="1" stop-color="white" stop-opacity="0.15"/>
</linearGradient>
<linearGradient id="paint36_linear_102_16289" x1="0.239735" y1="0" x2="0.239735" y2="420.016" gradientUnits="userSpaceOnUse">
<stop stop-color="white" stop-opacity="0.15"/>
<stop offset="0.5" stop-color="white"/>
<stop offset="1" stop-color="white" stop-opacity="0.15"/>
</linearGradient>
<linearGradient id="paint37_linear_102_16289" x1="0.239735" y1="0" x2="0.239735" y2="385.492" gradientUnits="userSpaceOnUse">
<stop stop-color="white" stop-opacity="0.15"/>
<stop offset="0.5" stop-color="white"/>
<stop offset="1" stop-color="white" stop-opacity="0.15"/>
</linearGradient>
<linearGradient id="paint38_linear_102_16289" x1="0.239735" y1="0" x2="0.239735" y2="319.328" gradientUnits="userSpaceOnUse">
<stop stop-color="white" stop-opacity="0.15"/>
<stop offset="0.5" stop-color="white"/>
<stop offset="1" stop-color="white" stop-opacity="0.15"/>
</linearGradient>
<linearGradient id="paint39_linear_102_16289" x1="0.23973" y1="0" x2="0.23973" y2="206.171" gradientUnits="userSpaceOnUse">
<stop stop-color="white" stop-opacity="0.15"/>
<stop offset="0.519231" stop-color="white"/>
<stop offset="1" stop-color="white" stop-opacity="0.15"/>
</linearGradient>
<linearGradient id="paint40_linear_102_16289" x1="194.353" y1="0.5" x2="0" y2="0.5" gradientUnits="userSpaceOnUse">
<stop stop-color="white" stop-opacity="0.05"/>
<stop offset="1" stop-color="white"/>
</linearGradient>
<linearGradient id="paint41_linear_102_16289" x1="255.385" y1="0.5" x2="0" y2="0.5" gradientUnits="userSpaceOnUse">
<stop stop-color="white" stop-opacity="0.05"/>
<stop offset="1" stop-color="white"/>
</linearGradient>
<linearGradient id="paint42_linear_102_16289" x1="335.122" y1="0.5" x2="0" y2="0.5" gradientUnits="userSpaceOnUse">
<stop stop-color="white" stop-opacity="0.05"/>
<stop offset="1" stop-color="white"/>
</linearGradient>
<linearGradient id="paint43_linear_102_16289" x1="300.927" y1="0.5" x2="0" y2="0.5" gradientUnits="userSpaceOnUse">
<stop stop-color="white" stop-opacity="0.05"/>
<stop offset="1" stop-color="white"/>
</linearGradient>
<linearGradient id="paint44_linear_102_16289" x1="258.633" y1="0.5" x2="0" y2="0.5" gradientUnits="userSpaceOnUse">
<stop stop-color="white" stop-opacity="0.05"/>
<stop offset="1" stop-color="white"/>
</linearGradient>
<linearGradient id="paint45_linear_102_16289" x1="220.986" y1="0.5" x2="0" y2="0.5" gradientUnits="userSpaceOnUse">
<stop stop-color="white" stop-opacity="0.05"/>
<stop offset="1" stop-color="white"/>
</linearGradient>
<linearGradient id="paint46_linear_102_16289" x1="191.985" y1="0.5" x2="0" y2="0.5" gradientUnits="userSpaceOnUse">
<stop stop-color="white" stop-opacity="0.05"/>
<stop offset="1" stop-color="white"/>
</linearGradient>
<linearGradient id="paint47_linear_102_16289" x1="667.481" y1="961.257" x2="693.372" y2="1135.31" gradientUnits="userSpaceOnUse">
<stop stop-color="white" stop-opacity="0.05"/>
<stop offset="1" stop-color="white"/>
</linearGradient>
<linearGradient id="paint48_linear_102_16289" x1="612.334" y1="961.415" x2="583.087" y2="1135.46" gradientUnits="userSpaceOnUse">
<stop stop-color="white" stop-opacity="0.05"/>
<stop offset="1" stop-color="white"/>
</linearGradient>
<linearGradient id="paint49_linear_102_16289" x1="192.802" y1="0.5" x2="0" y2="0.5" gradientUnits="userSpaceOnUse">
<stop stop-color="white" stop-opacity="0.05"/>
<stop offset="1" stop-color="white"/>
</linearGradient>
<linearGradient id="paint50_linear_102_16289" x1="223.971" y1="0.5" x2="0" y2="0.5" gradientUnits="userSpaceOnUse">
<stop stop-color="white" stop-opacity="0.05"/>
<stop offset="1" stop-color="white"/>
</linearGradient>
<linearGradient id="paint51_linear_102_16289" x1="0" y1="0.5" x2="258.989" y2="0.5" gradientUnits="userSpaceOnUse">
<stop stop-color="white"/>
<stop offset="1" stop-color="white" stop-opacity="0.05"/>
</linearGradient>
<linearGradient id="paint52_linear_102_16289" x1="0" y1="0.5" x2="303.672" y2="0.5" gradientUnits="userSpaceOnUse">
<stop stop-color="white"/>
<stop offset="1" stop-color="white" stop-opacity="0.05"/>
</linearGradient>
<linearGradient id="paint53_linear_102_16289" x1="0" y1="0.5" x2="352.186" y2="0.5" gradientUnits="userSpaceOnUse">
<stop stop-color="white"/>
<stop offset="1" stop-color="white" stop-opacity="0.05"/>
</linearGradient>
<linearGradient id="paint54_linear_102_16289" x1="0" y1="0.5" x2="320.371" y2="0.5" gradientUnits="userSpaceOnUse">
<stop stop-color="white"/>
<stop offset="1" stop-color="white" stop-opacity="0.05"/>
</linearGradient>
<linearGradient id="paint55_linear_102_16289" x1="0" y1="0.5" x2="249.646" y2="0.5" gradientUnits="userSpaceOnUse">
<stop stop-color="white"/>
<stop offset="1" stop-color="white" stop-opacity="0.05"/>
</linearGradient>
</defs>
</svg>
